<svg width="64" height="50" viewBox="0 0 64 50" fill="none" xmlns="http://www.w3.org/2000/svg">
<g clip-path="url(#clip0_207_43)">
<path d="M62.25 1H1.75C1.33579 1 1 1.33579 1 1.75V48.25C1 48.6642 1.33579 49 1.75 49H62.25C62.6642 49 63 48.6642 63 48.25V1.75C63 1.33579 62.6642 1 62.25 1Z" fill="#F9F9F9" stroke="#181818" stroke-width="0.75"/>
<path opacity="0.22" d="M32 13V48" stroke="#181818" stroke-width="0.375"/>
<path d="M17.4323 7H15.6613V3.26H17.4323C18.6753 3.26 19.1923 3.832 19.1923 5.13C19.1923 6.428 18.6753 7 17.4323 7ZM16.9373 4.074V6.186H17.1463C17.6083 6.186 17.8283 6.065 17.8283 5.13C17.8283 4.195 17.6083 4.074 17.1463 4.074H16.9373ZM20.2611 7H19.0511L20.0576 3.26H21.8836L22.8846 7H21.5591L21.3996 6.318H20.4206L20.2611 7ZM20.7561 4.899L20.6241 5.46H21.1961L21.0641 4.899C20.9981 4.6185 20.9541 4.404 20.9156 4.195H20.9046C20.8661 4.404 20.8221 4.6185 20.7561 4.899ZM22.9875 7V3.26H24.2855V7H22.9875ZM27.4535 7H24.5935V3.26H25.8915V6.098H27.4535V7ZM27.8181 5.57L26.6081 3.26H28.0546L28.2636 3.722C28.3846 3.9915 28.4891 4.2335 28.5441 4.47H28.5551C28.6101 4.2335 28.7146 3.9915 28.8356 3.722L29.0446 3.26H30.3701L29.1161 5.57V7H27.8181V5.57ZM33.5828 5.086V3.26H34.7488V7H33.0933L32.4388 4.965C32.3728 4.756 32.3288 4.591 32.2793 4.36H32.2738C32.3013 4.756 32.3068 4.921 32.3068 5.174V7H31.1408V3.26H32.7963L33.4508 5.295C33.5168 5.504 33.5608 5.669 33.6103 5.9H33.6158C33.5883 5.504 33.5828 5.339 33.5828 5.086ZM37.9053 7H35.0563V3.26H37.8613V4.118H36.3323V4.668H37.7953V5.526H36.3323V6.142H37.9053V7ZM38.7717 7L37.9742 3.26H39.2777L39.5637 5.0145C39.5967 5.2125 39.6132 5.372 39.6297 5.636H39.6407C39.6572 5.372 39.6737 5.2125 39.7067 5.0145L39.9982 3.26H41.5492L41.8352 5.0145C41.8682 5.2125 41.8847 5.372 41.9012 5.636H41.9122C41.9287 5.372 41.9452 5.2125 41.9782 5.0145L42.2697 3.26H43.3862L42.5887 7H41.1257L40.7407 4.679C40.7077 4.481 40.6912 4.3215 40.6747 4.0575H40.6637C40.6472 4.3215 40.6307 4.481 40.5977 4.679L40.2182 7H38.7717ZM43.2435 6.5655L43.5845 5.7295C44.173 6.01 44.723 6.153 45.196 6.153C45.559 6.153 45.702 6.054 45.702 5.9055C45.702 5.779 45.6415 5.702 45.3995 5.669L44.6075 5.57C43.8265 5.471 43.4085 5.0585 43.4085 4.3875C43.4085 3.7 43.8375 3.205 45.185 3.205C45.889 3.205 46.4225 3.3425 46.8625 3.557L46.4885 4.3765C46.098 4.2005 45.6415 4.0905 45.185 4.0905C44.756 4.0905 44.6625 4.1895 44.6625 4.3215C44.6625 4.4645 44.767 4.5085 45.075 4.547L45.867 4.646C46.6865 4.7505 46.956 5.1795 46.956 5.79C46.956 6.6975 46.263 7.055 45.141 7.055C44.338 7.055 43.722 6.824 43.2435 6.5655Z" fill="#181818"/>
<path d="M4 11H60" stroke="#181818" stroke-width="0.375"/>
<path d="M4 12.25H60" stroke="#181818" stroke-width="0.25"/>
<path opacity="0.9" d="M29.5 16H4V28H29.5V16Z" fill="#181818"/>
<path d="M4 31H29" stroke="#181818" stroke-width="0.625"/>
<path opacity="0.6" d="M4 34H29" stroke="#181818" stroke-width="0.375"/>
<path opacity="0.6" d="M4 36.5H26" stroke="#181818" stroke-width="0.375"/>
<path opacity="0.6" d="M4 39H29" stroke="#181818" stroke-width="0.375"/>
<path opacity="0.6" d="M4 41.5H24" stroke="#181818" stroke-width="0.375"/>
<path opacity="0.6" d="M4 44H28.5" stroke="#181818" stroke-width="0.375"/>
<path d="M34 16.5H60" stroke="#181818" stroke-width="0.625"/>
<path opacity="0.6" d="M34 19.5H60" stroke="#181818" stroke-width="0.375"/>
<path opacity="0.6" d="M34 22H57.5" stroke="#181818" stroke-width="0.375"/>
<path opacity="0.6" d="M34 24.5H60" stroke="#181818" stroke-width="0.375"/>
<path opacity="0.6" d="M34 27H55" stroke="#181818" stroke-width="0.375"/>
<path d="M60 30H34V40H60V30Z" fill="#FF6F42"/>
<path opacity="0.6" d="M34 42.5H60" stroke="#181818" stroke-width="0.375"/>
<path opacity="0.6" d="M34 45H57" stroke="#181818" stroke-width="0.375"/>
</g>
<defs>
<clipPath id="clip0_207_43">
<rect width="64" height="50" fill="white"/>
</clipPath>
</defs>
</svg>
